<svg width="293.3443080357142" height="259.37812499999995" viewBox="0 0 380 336" class="css-1j8o68f">
    <defs id="SvgjsDefs2581"></defs>
    <g id="SvgjsG2582" featurekey="rootContainer" transform="matrix(1,0,0,1,0,0)" fill="#000000">
        <rect y="0" height="1" width="1" opacity="0"></rect>
        <rect y="331" width="380" height="5"></rect>
    </g>
    <g id="SvgjsG2583" featurekey="0LeO0L-0" transform="matrix(1,0,0,1,0,168)" fill="#111111">
        <path d=""></path>
    </g>
    <g id="SvgjsG2584" featurekey="pulpyG-0"
        transform="matrix(20.44392423147056,0,0,20.44392423147056,12.324749819264243,-79.2196211573528)" fill="#000000">
        <path
            d="M17.18 5.5600000000000005 c-0.37334 0 -0.56 0.18666 -0.56 0.56 l0 10.88 l-16 -12 l0 13.12 c0 0.36 0.18666 0.54 0.56 0.54 s0.56 -0.18 0.56 -0.54 l0 -10.9 l16 12 l0 -13.1 c0 -0.37334 -0.18666 -0.56 -0.56 -0.56 z">
        </path>
    </g>
</svg>